<?xml version="1.0" standalone="no"?>
<!DOCTYPE svg PUBLIC "-//W3C//DTD SVG 20010904//EN"
 "http://www.w3.org/TR/2001/REC-SVG-20010904/DTD/svg10.dtd">
<svg version="1.0" xmlns="http://www.w3.org/2000/svg"
 width="1531.000000pt" height="865.000000pt" viewBox="0 0 1531.000000 865.000000"
 preserveAspectRatio="xMidYMid meet">

<g transform="translate(0.000000,865.000000) scale(0.100000,-0.100000)"
fill="#000000" stroke="none">
<path d="M10040 8305 c-284 -59 -503 -236 -750 -605 -294 -440 -517 -972 -594
-1415 -43 -247 -60 -622 -36 -773 29 -174 122 -411 220 -558 82 -122 254 -325
294 -346 19 -10 19 -10 -1 23 -164 269 -178 301 -227 519 -38 172 -47 277 -49
601 -2 318 8 410 67 659 105 445 329 936 587 1290 102 139 184 227 279 299
153 115 250 142 376 102 203 -62 388 -299 663 -849 260 -520 446 -998 626
-1612 159 -542 165 -575 165 -925 -1 -403 -15 -458 -151 -599 -91 -96 -109
-103 -154 -56 -35 37 -85 52 -124 39 -71 -25 -82 -145 -21 -241 58 -91 67
-116 151 -408 l82 -285 7 -195 c8 -225 18 -260 71 -260 71 0 96 40 109 178 21
216 18 241 -70 557 -44 158 -80 292 -80 296 0 5 26 26 58 45 82 52 260 236
299 310 71 133 99 351 90 707 -6 261 -13 303 -107 637 -185 666 -336 1080
-594 1630 -269 572 -501 940 -686 1087 -147 118 -354 179 -500 148z"/>
<path d="M1965 7830 c-28 -29 -28 -32 -18 -78 57 -248 85 -386 95 -469 16
-128 16 -997 -1 -1373 -24 -559 -32 -959 -38 -1960 -7 -1204 -2 -1303 65
-1339 32 -17 84 -13 120 9 l34 21 -9 107 c-12 155 -8 2070 6 2517 6 209 18
560 27 780 11 276 14 518 11 780 -7 459 -24 617 -93 867 -32 115 -43 137 -75
154 -47 24 -91 18 -124 -16z"/>
<path d="M1623 7838 c-13 -6 -24 -24 -28 -47 -18 -89 2 -5088 21 -5149 14 -48
100 -67 155 -35 l29 17 0 561 c0 1073 -19 4351 -26 4488 -6 122 -9 141 -27
158 -23 21 -87 25 -124 7z"/>
<path d="M558 7750 c-32 -28 -65 -70 -78 -96 -50 -109 -51 -113 -60 -1149 -5
-533 -14 -1085 -20 -1225 -6 -140 -15 -518 -20 -840 -5 -322 -15 -717 -22
-878 -15 -389 -5 -553 40 -644 61 -125 131 -180 279 -220 68 -18 113 -22 351
-26 271 -4 274 -4 297 18 13 12 25 30 28 40 7 27 -21 76 -51 89 -16 8 -117 16
-252 22 -256 11 -337 21 -399 51 -53 25 -95 87 -113 167 -16 70 -16 465 1 666
6 77 14 260 18 406 l6 267 86 4 c102 5 155 26 169 68 8 22 6 34 -8 58 -30 49
-52 55 -162 48 l-99 -7 5 23 c3 13 7 151 11 308 3 157 10 386 16 510 6 124 14
639 18 1145 l8 920 23 78 24 78 185 -5 c102 -4 258 -9 347 -12 l161 -5 31 36
c38 42 40 67 10 110 l-21 32 -246 6 c-135 4 -305 7 -377 7 l-130 0 -56 -50z"/>
<path d="M5371 7436 l-25 -26 13 -868 c15 -1077 27 -1925 41 -2767 6 -357 11
-730 13 -828 l2 -179 33 -29 c38 -34 87 -38 134 -11 l31 17 -7 545 c-4 300
-15 1101 -26 1780 -11 679 -22 1444 -25 1700 -3 256 -8 507 -11 558 -7 107
-16 118 -100 128 -44 5 -52 3 -73 -20z"/>
<path d="M5872 5545 c-17 -8 -36 -25 -41 -38 -19 -50 -34 -279 -35 -519 -1
-235 0 -248 20 -275 17 -22 30 -29 67 -31 60 -4 84 10 96 56 5 20 15 200 22
400 12 398 14 382 -48 409 -39 16 -40 16 -81 -2z"/>
<path d="M6990 4762 c-43 -22 -65 -59 -90 -156 -20 -79 -70 -411 -70 -466 0
-50 -18 -34 -30 28 -79 384 -140 545 -220 587 -41 21 -108 19 -147 -5 -56 -34
-73 -84 -97 -296 -65 -563 -46 -1220 46 -1619 17 -73 27 -96 53 -122 39 -39
83 -43 134 -12 39 24 40 -9 -13 299 -52 301 -59 427 -53 850 6 354 17 514 36
533 16 16 69 -246 171 -863 87 -523 121 -714 132 -743 14 -35 84 -73 119 -63
58 15 54 -31 54 678 0 571 3 670 18 788 10 74 23 139 28 144 5 6 9 7 9 4 0 -3
9 -50 20 -104 12 -55 48 -264 80 -466 154 -951 163 -988 230 -1023 54 -28 114
-6 134 49 3 10 -5 77 -19 149 -14 71 -66 373 -116 671 -152 912 -185 1051
-266 1128 -27 26 -72 48 -96 48 -7 0 -28 -8 -47 -18z"/>
<path d="M2798 4430 c-83 -21 -153 -90 -213 -210 -155 -308 -164 -837 -22
-1233 57 -157 110 -232 200 -279 34 -18 59 -23 127 -23 72 0 94 4 144 28 210
98 278 264 293 712 8 253 -9 376 -84 595 -34 100 -124 276 -167 327 -59 68
-186 106 -278 83z m120 -182 c57 -74 131 -240 162 -360 63 -251 67 -562 10
-805 -27 -115 -55 -168 -108 -209 -91 -69 -127 -57 -187 62 -46 90 -76 194
-107 364 -28 154 -30 476 -5 591 46 203 138 399 189 399 8 0 28 -19 46 -42z"/>
<path d="M11972 4003 c-34 -7 -86 -64 -100 -111 -7 -23 -15 -71 -19 -106 l-6
-64 -39 26 c-44 29 -57 26 -92 -22 -53 -71 -20 -327 74 -578 12 -31 51 -101
86 -155 36 -54 73 -110 81 -126 8 -16 30 -119 49 -230 82 -484 279 -1468 341
-1712 53 -207 120 -373 196 -485 41 -60 137 -160 154 -160 16 0 16 -5 -1 72
-8 35 -22 135 -31 223 -22 219 -24 230 -130 740 -129 620 -295 1488 -295 1545
0 10 21 28 53 45 28 15 80 48 115 73 l64 44 16 -23 c8 -13 34 -43 57 -66 44
-44 102 -61 168 -49 58 11 159 79 244 164 l82 83 56 -45 c30 -25 68 -52 83
-60 40 -20 125 -36 197 -36 56 0 74 5 142 42 178 95 203 106 250 112 35 5 112
-4 288 -34 222 -38 250 -41 380 -37 245 7 435 74 537 187 55 60 105 146 93
158 -4 4 -68 7 -143 7 -134 0 -140 -1 -252 -40 l-115 -40 -155 0 c-134 1 -179
5 -330 35 -207 39 -334 44 -420 16 -30 -10 -106 -45 -167 -77 -62 -32 -125
-59 -140 -59 -33 0 -59 22 -143 118 -60 70 -119 112 -156 112 -10 0 -37 -10
-61 -21 -33 -16 -69 -52 -143 -144 -90 -112 -120 -141 -132 -129 -14 13 19
144 67 263 88 222 105 319 66 391 -22 43 -74 80 -111 80 -78 0 -134 -89 -195
-310 -21 -74 -49 -158 -62 -186 -27 -55 -108 -164 -122 -164 -4 0 -27 76 -50
168 -53 217 -126 447 -156 493 -14 21 -43 46 -67 58 -43 21 -60 23 -106 14z"/>
</g>
</svg>
