<?xml version="1.0" standalone="no"?>
<!DOCTYPE svg PUBLIC "-//W3C//DTD SVG 20010904//EN"
 "http://www.w3.org/TR/2001/REC-SVG-20010904/DTD/svg10.dtd">
<svg version="1.0" xmlns="http://www.w3.org/2000/svg"
 width="1878.000000pt" height="1875.000000pt" viewBox="0 0 1878.000000 1875.000000"
 preserveAspectRatio="xMidYMid meet">

<g transform="translate(0.000000,1875.000000) scale(0.100000,-0.100000)"
fill="#000000" stroke="none">
<path d="M8706 18735 c-4 -12 -28 -15 -128 -15 -88 -1 -130 -5 -148 -15 -16
-9 -55 -14 -107 -15 -45 0 -85 -4 -88 -10 -3 -5 -42 -10 -85 -10 -43 0 -82 -4
-85 -10 -3 -5 -39 -10 -78 -10 -47 -1 -79 -6 -91 -15 -13 -10 -43 -15 -82 -15
-35 0 -66 -4 -69 -10 -3 -5 -30 -10 -60 -10 -30 0 -57 -4 -60 -10 -3 -5 -28
-10 -54 -10 -30 0 -53 -6 -60 -14 -7 -8 -33 -17 -59 -20 -101 -12 -137 -18
-147 -27 -5 -5 -27 -9 -50 -9 -23 0 -46 -5 -53 -12 -10 -10 -61 -23 -145 -35
-20 -3 -40 -9 -43 -14 -3 -5 -18 -9 -33 -9 -16 0 -42 -7 -57 -15 -16 -8 -41
-15 -56 -15 -15 0 -30 -4 -33 -10 -3 -5 -21 -10 -40 -10 -19 0 -37 -4 -40 -10
-3 -5 -19 -10 -35 -10 -16 0 -32 -4 -35 -10 -3 -5 -14 -10 -23 -10 -9 0 -30
-7 -46 -15 -15 -8 -39 -15 -52 -15 -12 0 -26 -4 -29 -10 -3 -5 -19 -10 -35
-10 -16 0 -32 -4 -35 -10 -3 -5 -17 -10 -29 -10 -13 0 -29 -7 -36 -15 -7 -8
-25 -15 -41 -15 -15 0 -31 -4 -34 -10 -3 -5 -17 -10 -30 -10 -13 0 -27 -4 -30
-10 -3 -5 -16 -10 -29 -10 -12 0 -31 -7 -42 -15 -10 -8 -27 -15 -37 -15 -17 0
-27 -4 -74 -28 -13 -7 -30 -12 -39 -12 -9 0 -30 -7 -47 -16 -58 -30 -67 -34
-80 -34 -7 0 -37 -11 -65 -25 -29 -14 -59 -25 -67 -25 -8 0 -15 -4 -15 -10 0
-5 -7 -10 -15 -10 -15 0 -24 -3 -82 -34 -17 -9 -38 -16 -47 -16 -9 0 -16 -4
-16 -10 0 -5 -6 -10 -14 -10 -8 0 -45 -16 -82 -35 -37 -19 -73 -35 -80 -35 -8
0 -14 -4 -14 -10 0 -5 -6 -10 -14 -10 -8 0 -36 -11 -63 -24 -262 -129 -398
-199 -458 -236 -16 -10 -38 -19 -47 -19 -10 -1 -18 -5 -18 -11 0 -5 -6 -10
-13 -10 -7 0 -36 -16 -64 -35 -29 -19 -56 -35 -61 -35 -5 0 -15 -7 -22 -15 -7
-8 -21 -15 -31 -15 -11 0 -19 -4 -19 -10 0 -5 -5 -10 -12 -10 -6 0 -25 -10
-42 -23 -17 -12 -51 -33 -76 -46 -25 -13 -52 -30 -61 -37 -8 -8 -20 -14 -26
-14 -5 0 -18 -9 -28 -20 -10 -11 -22 -20 -27 -20 -5 0 -24 -11 -42 -25 -18
-14 -38 -25 -44 -25 -7 0 -12 -4 -12 -8 0 -5 -17 -18 -37 -31 -21 -12 -58 -37
-83 -56 -25 -19 -58 -42 -74 -51 -16 -9 -41 -27 -55 -40 -14 -13 -30 -24 -35
-24 -5 0 -19 -9 -30 -19 -23 -21 -69 -55 -131 -97 -22 -15 -47 -35 -55 -44 -8
-9 -25 -22 -37 -28 -20 -11 -65 -46 -155 -122 -20 -17 -53 -42 -75 -57 -21
-14 -42 -32 -46 -39 -4 -7 -29 -28 -55 -45 -48 -33 -64 -47 -294 -254 -252
-228 -774 -771 -883 -920 -17 -22 -47 -58 -67 -80 -21 -22 -38 -43 -38 -47 0
-4 -20 -31 -45 -60 -25 -29 -63 -74 -85 -100 -22 -25 -40 -51 -40 -56 0 -6
-16 -27 -35 -46 -19 -20 -35 -40 -35 -44 0 -5 -16 -27 -35 -49 -19 -23 -35
-45 -35 -51 0 -5 -9 -17 -21 -28 -12 -10 -28 -32 -36 -49 -9 -16 -19 -32 -23
-35 -7 -5 -54 -74 -76 -112 -6 -10 -21 -29 -33 -42 -11 -12 -21 -29 -21 -38 0
-9 -4 -18 -8 -20 -9 -3 -99 -138 -121 -181 -8 -15 -18 -27 -23 -27 -4 0 -8 -8
-8 -17 0 -9 -8 -26 -19 -37 -10 -12 -30 -42 -44 -68 -14 -25 -37 -64 -51 -87
-14 -22 -26 -43 -26 -46 0 -3 -15 -29 -33 -58 -18 -29 -41 -68 -50 -87 -10
-19 -22 -42 -27 -50 -23 -37 -96 -168 -109 -195 -7 -16 -17 -37 -22 -45 -4 -8
-20 -40 -35 -70 -14 -30 -34 -71 -44 -90 -29 -54 -92 -191 -110 -235 -10 -24
-38 -85 -49 -105 -24 -45 -31 -61 -31 -74 0 -8 -11 -36 -25 -62 -14 -26 -25
-55 -25 -65 0 -10 -4 -21 -10 -24 -5 -3 -10 -15 -10 -26 0 -10 -4 -19 -10 -19
-5 0 -10 -13 -10 -29 0 -16 -7 -34 -15 -41 -8 -7 -15 -21 -15 -31 0 -10 -4
-21 -10 -24 -5 -3 -10 -17 -10 -30 0 -13 -4 -27 -10 -30 -5 -3 -10 -17 -10
-29 0 -13 -7 -29 -15 -36 -8 -7 -15 -23 -15 -36 0 -12 -4 -26 -10 -29 -5 -3
-10 -17 -10 -30 0 -13 -5 -27 -10 -30 -6 -3 -10 -14 -10 -24 0 -10 -7 -32 -15
-47 -8 -16 -15 -37 -15 -46 0 -9 -4 -20 -10 -23 -5 -3 -10 -19 -10 -35 0 -16
-4 -32 -10 -35 -5 -3 -10 -14 -10 -24 0 -10 -7 -32 -15 -47 -8 -16 -15 -39
-15 -51 0 -12 -4 -25 -10 -28 -5 -3 -10 -19 -10 -35 0 -16 -4 -32 -10 -35 -5
-3 -10 -17 -10 -31 0 -13 -4 -32 -9 -42 -14 -26 -41 -118 -41 -141 0 -11 -4
-23 -10 -26 -5 -3 -10 -24 -10 -45 0 -21 -4 -41 -9 -44 -5 -3 -12 -26 -15 -51
-4 -24 -11 -47 -17 -50 -5 -4 -9 -24 -9 -46 0 -21 -4 -39 -10 -39 -5 0 -10
-20 -10 -44 0 -25 -5 -48 -10 -51 -6 -3 -10 -23 -10 -43 0 -20 -7 -46 -15 -56
-8 -11 -15 -39 -15 -62 0 -24 -4 -46 -10 -49 -5 -3 -10 -31 -10 -61 0 -30 -4
-54 -10 -54 -5 0 -10 -24 -10 -52 -1 -31 -7 -61 -15 -72 -9 -12 -15 -42 -15
-77 0 -32 -4 -61 -10 -64 -5 -3 -10 -35 -10 -70 0 -35 -4 -67 -10 -70 -5 -3
-10 -39 -10 -79 0 -48 -5 -79 -15 -92 -10 -13 -14 -45 -15 -104 0 -48 -4 -90
-9 -95 -6 -6 -12 -64 -15 -130 -3 -66 -11 -228 -17 -360 -18 -380 -10 -1197
12 -1219 5 -6 9 -63 9 -127 0 -68 4 -120 10 -124 6 -3 10 -46 10 -94 0 -61 4
-93 15 -107 9 -12 14 -44 15 -91 0 -39 5 -75 10 -78 6 -3 10 -37 10 -75 0 -38
4 -72 10 -75 5 -3 10 -32 10 -64 0 -40 5 -63 15 -71 10 -8 15 -31 15 -66 0
-29 4 -56 10 -59 5 -3 10 -28 10 -55 0 -27 4 -52 10 -55 5 -3 10 -25 10 -49 0
-23 7 -51 15 -62 8 -10 15 -38 15 -61 0 -23 4 -45 10 -48 5 -3 10 -24 10 -45
0 -21 5 -42 10 -45 6 -3 10 -23 10 -43 0 -20 7 -46 15 -56 8 -11 15 -34 15
-52 0 -18 5 -36 10 -39 6 -3 10 -21 10 -40 0 -19 5 -37 10 -40 5 -3 10 -19 10
-36 0 -16 4 -37 9 -47 16 -32 33 -87 38 -120 3 -18 9 -35 14 -38 5 -3 9 -21 9
-40 0 -19 5 -34 10 -34 6 0 10 -13 10 -29 0 -16 7 -34 15 -41 8 -7 15 -25 15
-41 0 -15 4 -31 10 -34 5 -3 10 -19 10 -35 0 -16 5 -32 10 -35 6 -3 10 -17 10
-29 0 -13 7 -29 15 -36 8 -7 15 -25 15 -41 0 -15 5 -31 10 -34 6 -3 10 -17 10
-30 0 -13 5 -27 10 -30 6 -3 10 -13 10 -22 0 -14 20 -66 41 -105 5 -10 9 -27
9 -37 0 -11 5 -23 10 -26 6 -3 10 -13 10 -21 0 -8 11 -37 25 -66 14 -28 25
-60 25 -69 0 -10 5 -21 10 -24 6 -3 10 -14 10 -24 0 -10 7 -24 15 -31 8 -7 15
-21 15 -31 0 -11 4 -27 9 -37 16 -32 64 -137 71 -157 9 -22 94 -205 116 -246
13 -25 46 -92 64 -129 4 -8 19 -37 33 -63 15 -26 27 -54 27 -62 0 -8 5 -15 10
-15 6 0 10 -9 10 -19 0 -11 4 -23 10 -26 5 -3 17 -23 27 -43 9 -20 31 -59 48
-87 17 -27 39 -66 49 -85 9 -19 26 -50 36 -68 11 -17 29 -47 40 -65 10 -17 27
-47 36 -64 9 -18 20 -33 25 -33 5 0 9 -7 9 -15 0 -8 16 -37 35 -64 19 -26 35
-52 35 -55 0 -4 11 -22 25 -40 14 -18 25 -38 25 -44 0 -7 4 -12 8 -12 5 0 15
-12 23 -28 7 -15 31 -50 51 -79 21 -29 38 -56 38 -61 0 -4 9 -17 19 -29 10
-11 26 -33 34 -49 8 -16 24 -38 36 -48 12 -11 21 -24 21 -31 0 -6 11 -22 25
-35 14 -13 25 -29 25 -35 0 -6 9 -21 20 -32 11 -12 27 -35 37 -51 17 -28 29
-42 113 -145 22 -27 40 -52 40 -56 0 -4 13 -22 29 -39 17 -17 43 -48 58 -69
39 -55 98 -125 168 -202 34 -36 73 -82 87 -101 14 -20 56 -67 94 -105 38 -38
91 -97 118 -130 63 -77 453 -469 513 -515 25 -19 73 -61 107 -94 33 -32 77
-70 96 -84 19 -15 60 -49 91 -77 94 -83 153 -131 179 -146 14 -8 34 -23 45
-34 11 -11 36 -31 55 -45 35 -24 60 -43 155 -120 27 -22 53 -40 58 -40 4 0 18
-11 31 -25 13 -14 28 -25 33 -25 5 0 28 -16 50 -35 23 -19 45 -35 50 -35 5 0
20 -11 33 -25 13 -14 29 -25 35 -25 6 0 20 -9 32 -19 11 -10 33 -26 49 -34 16
-8 38 -24 48 -36 11 -12 24 -21 31 -21 6 0 22 -11 35 -25 13 -14 31 -25 41
-25 9 0 19 -4 21 -8 4 -10 146 -102 157 -102 5 0 14 -6 20 -13 6 -8 32 -24 58
-37 27 -13 54 -29 62 -34 17 -13 114 -69 161 -92 19 -10 58 -32 85 -49 28 -17
66 -39 85 -48 19 -10 42 -21 50 -26 8 -5 51 -26 95 -47 44 -22 82 -42 83 -46
2 -5 9 -8 16 -8 16 0 120 -52 124 -62 2 -4 9 -8 15 -8 7 0 45 -16 84 -35 40
-19 79 -35 87 -35 8 0 18 -4 21 -10 3 -5 15 -10 25 -10 10 0 20 -3 22 -7 2 -5
30 -21 63 -37 33 -15 68 -32 77 -37 10 -5 26 -9 37 -9 10 0 24 -7 31 -15 7 -8
21 -15 31 -15 11 0 19 -4 19 -10 0 -5 9 -10 20 -10 20 0 27 -3 87 -34 17 -9
38 -16 47 -16 9 0 25 -4 36 -10 11 -5 29 -15 40 -20 11 -6 28 -10 39 -10 10 0
24 -7 31 -15 7 -8 25 -15 41 -15 16 0 29 -4 29 -10 0 -5 9 -10 20 -10 18 0 37
-6 107 -36 17 -8 36 -14 42 -14 6 0 19 -4 29 -9 9 -5 37 -15 62 -21 25 -7 59
-19 77 -26 17 -8 40 -14 51 -14 12 0 24 -4 27 -10 3 -5 19 -10 35 -10 16 0 32
-4 35 -10 3 -5 17 -10 29 -10 13 0 37 -7 52 -15 16 -8 39 -15 51 -15 12 0 25
-5 28 -10 3 -6 21 -10 40 -10 19 0 37 -4 40 -10 3 -5 21 -10 40 -10 19 0 37
-5 40 -10 3 -6 23 -10 43 -10 20 0 46 -7 56 -15 11 -8 37 -15 58 -15 21 0 38
-4 38 -10 0 -5 20 -10 44 -10 25 0 48 -4 51 -10 3 -5 25 -10 49 -10 23 0 51
-7 62 -15 10 -8 37 -15 60 -15 22 0 44 -4 50 -9 9 -9 56 -17 166 -27 31 -3 62
-12 69 -20 8 -9 32 -14 75 -14 34 0 66 -5 69 -10 3 -6 39 -10 80 -10 41 0 77
-4 80 -10 3 -5 39 -10 78 -10 44 0 83 -6 101 -15 18 -10 57 -15 110 -15 45 0
86 -4 92 -9 10 -10 92 -15 574 -31 354 -13 360 -13 755 -5 165 4 304 11 309
16 6 5 67 9 137 9 75 0 130 4 134 10 3 6 43 10 88 10 52 1 91 6 107 15 16 9
54 14 102 15 42 0 80 5 83 10 3 6 37 10 75 10 38 0 72 4 75 10 3 6 34 10 68
10 39 1 69 6 81 15 12 9 42 15 72 15 29 0 56 5 59 10 3 6 28 10 55 10 27 0 52
5 55 10 3 6 25 10 49 10 23 0 47 5 54 12 11 11 55 21 157 35 22 3 44 9 49 14
6 5 26 9 45 9 20 0 45 7 55 15 11 8 34 15 52 15 18 0 36 5 39 10 3 6 24 10 45
10 21 0 42 5 45 10 3 6 15 10 26 10 23 0 115 27 141 41 10 5 29 9 42 9 14 0
28 5 31 10 3 6 19 10 35 10 16 0 31 4 34 9 3 5 18 11 33 14 25 4 50 12 118 37
11 4 43 15 70 23 74 24 124 42 131 50 4 4 18 7 30 7 13 0 26 5 29 10 3 6 19
10 34 10 16 0 34 7 41 15 7 8 21 15 31 15 11 0 28 5 39 10 11 6 29 15 40 20
11 6 25 10 32 10 7 0 36 11 63 25 28 13 58 25 67 25 9 0 20 5 23 10 3 6 14 10
24 10 10 0 23 6 29 13 6 7 34 19 62 27 27 7 50 17 50 22 0 4 9 8 19 8 11 0 23
4 26 10 5 8 43 27 100 50 33 13 137 61 175 81 19 10 51 25 70 35 96 46 136 66
150 74 8 4 41 20 72 35 32 14 60 30 63 36 4 5 15 9 26 9 10 0 19 4 19 8 0 4
12 13 28 19 15 7 63 32 107 57 44 25 89 50 100 56 11 5 38 21 60 34 22 14 58
34 80 46 21 12 50 30 63 41 14 10 29 19 34 19 5 0 14 5 21 10 23 19 88 60 96
60 4 0 16 9 26 20 10 11 23 20 30 20 7 0 24 11 39 25 15 14 33 25 41 25 7 0
15 4 17 9 2 4 36 31 77 59 41 28 85 61 98 72 13 11 26 20 30 20 7 0 71 47 134
98 23 17 45 32 49 32 5 0 19 10 32 23 13 12 37 31 53 41 35 23 91 66 149 117
22 20 48 40 58 45 9 5 34 25 55 44 21 19 52 44 68 54 33 21 107 85 223 191 43
39 102 91 132 117 80 67 439 428 535 538 46 52 100 111 120 130 21 19 50 52
66 74 16 21 56 67 89 102 33 36 60 69 60 74 0 5 25 35 55 67 30 32 55 62 55
66 0 4 16 26 37 47 20 22 44 52 53 68 10 15 29 38 44 51 14 14 26 30 26 36 0
6 12 25 28 42 29 34 90 115 108 145 6 10 21 29 33 42 11 12 21 27 21 32 0 6 9
19 19 31 10 11 26 33 35 49 9 16 36 58 61 94 25 36 50 72 55 80 5 8 21 32 35
53 14 21 25 41 25 46 0 4 9 16 20 26 11 10 20 23 20 28 0 6 6 18 14 26 7 9 24
36 37 61 13 25 34 59 46 76 13 17 23 36 23 42 0 7 5 12 10 12 6 0 10 7 10 15
0 8 15 36 33 62 18 27 42 66 53 88 10 22 21 42 24 45 6 6 29 46 47 82 8 15 18
30 24 33 5 4 9 15 9 26 0 10 5 19 10 19 6 0 10 9 10 19 0 11 4 22 9 26 13 7
41 64 41 82 0 7 5 13 10 13 6 0 10 9 10 19 0 11 4 22 9 26 9 5 33 53 75 147 9
20 21 40 26 43 6 3 10 15 10 26 0 10 5 19 10 19 6 0 10 6 10 13 0 6 16 44 35
82 19 39 35 75 35 81 0 12 16 45 35 74 14 21 35 82 35 103 0 9 5 17 10 17 6 0
10 6 10 14 0 8 6 27 14 43 8 15 20 42 26 58 7 17 16 38 21 47 5 10 9 26 9 35
0 10 7 27 15 37 8 11 15 28 15 38 0 10 5 27 10 38 6 11 15 29 20 40 5 11 10
28 10 37 0 10 7 27 15 37 8 11 15 30 15 42 0 13 5 26 10 29 6 3 10 17 10 30 0
13 5 27 10 30 6 3 10 17 10 30 0 13 8 38 17 57 31 62 33 68 33 92 0 14 5 28
10 31 5 3 10 19 10 35 0 16 5 32 10 35 6 3 10 16 10 29 0 12 7 31 15 42 8 10
15 33 15 51 0 17 5 35 10 38 6 3 10 19 10 35 0 16 5 32 10 35 5 3 10 18 10 32
0 14 6 39 14 56 15 35 25 71 33 130 3 20 9 40 14 43 5 3 9 20 9 37 1 18 7 43
15 57 8 14 14 42 15 62 0 20 5 40 10 43 6 3 10 26 10 50 0 24 5 47 10 50 5 3
10 23 10 43 1 20 7 48 15 62 8 14 14 46 15 72 0 26 5 50 10 53 6 3 10 30 10
60 0 30 5 57 10 60 5 3 10 30 10 59 0 30 6 60 15 72 9 12 14 42 15 79 0 34 4
65 9 70 5 6 12 44 15 85 15 205 22 266 31 280 12 18 23 177 34 495 4 127 8
231 9 233 1 1 9 2 17 2 13 0 15 36 15 260 0 215 -2 260 -14 260 -22 0 -26 34
-26 252 0 127 -4 209 -10 213 -6 4 -10 54 -10 118 0 80 -4 120 -15 141 -10 18
-15 57 -15 112 0 45 -4 86 -10 89 -5 3 -10 42 -10 86 0 46 -4 79 -10 79 -6 0
-10 28 -10 63 -1 35 -7 73 -15 87 -8 14 -14 48 -15 77 0 28 -4 55 -10 58 -5 3
-10 30 -10 60 0 30 -4 57 -10 60 -5 3 -10 27 -10 53 0 26 -7 56 -15 66 -8 11
-15 39 -15 62 0 24 -4 46 -10 49 -5 3 -10 26 -10 50 0 24 -4 47 -10 50 -5 3
-10 23 -10 44 0 20 -7 46 -15 57 -8 10 -15 36 -15 56 0 20 -4 40 -10 43 -5 3
-10 21 -10 40 0 19 -4 37 -10 40 -5 3 -10 19 -10 34 0 16 -7 42 -15 57 -8 16
-15 41 -15 57 0 15 -4 27 -10 27 -5 0 -10 15 -10 34 0 19 -4 37 -9 40 -5 3
-11 20 -14 38 -5 33 -22 88 -38 120 -5 10 -9 29 -9 43 0 14 -4 25 -10 25 -5 0
-10 13 -10 29 0 17 -4 33 -10 36 -5 3 -10 16 -10 29 0 12 -7 31 -15 42 -8 10
-15 31 -15 47 0 15 -4 27 -10 27 -5 0 -10 13 -10 29 0 17 -4 33 -10 36 -5 3
-10 16 -10 29 0 12 -7 31 -15 42 -8 10 -15 27 -15 37 0 9 -5 26 -10 37 -5 11
-14 29 -20 40 -5 11 -10 28 -10 39 0 10 -7 24 -15 31 -8 7 -15 21 -15 31 0 19
-4 28 -28 76 -7 13 -12 27 -12 33 0 6 -11 33 -25 62 -14 28 -25 60 -25 69 0
10 -4 21 -10 24 -5 3 -10 14 -10 24 0 10 -7 24 -15 31 -8 7 -15 21 -15 31 0
11 -4 19 -10 19 -5 0 -10 9 -10 20 0 11 -4 28 -9 38 -36 69 -81 167 -81 178 0
6 -7 14 -15 18 -8 3 -15 12 -15 20 0 13 -19 57 -58 131 -9 16 -29 56 -45 90
-16 33 -33 67 -38 75 -5 8 -18 33 -29 55 -11 22 -36 67 -55 100 -19 33 -39 70
-45 82 -5 11 -14 24 -19 28 -6 3 -11 15 -11 26 0 10 -4 19 -10 19 -5 0 -10 5
-10 12 0 6 -10 25 -23 42 -12 17 -33 52 -46 79 -14 26 -30 52 -38 58 -7 6 -13
16 -13 21 0 5 -15 30 -32 56 -18 26 -39 57 -45 70 -32 56 -41 72 -88 142 -28
41 -53 76 -57 78 -5 2 -8 8 -8 13 0 12 -140 213 -151 217 -5 2 -9 9 -9 16 0 7
-15 30 -32 52 -18 22 -37 47 -43 55 -14 23 -89 120 -111 145 -11 11 -25 31
-33 45 -14 24 -45 62 -132 162 -25 28 -56 67 -68 85 -13 18 -37 48 -55 65 -17
18 -49 55 -71 82 -22 28 -72 84 -111 125 -39 41 -99 107 -132 145 -72 85 -446
454 -519 514 -29 23 -71 61 -95 85 -24 23 -61 56 -83 72 -22 16 -62 50 -89 76
-28 27 -54 48 -58 48 -4 0 -32 21 -62 48 -119 103 -155 132 -163 132 -4 0 -24
14 -43 31 -19 17 -51 41 -70 54 -19 14 -60 45 -90 70 -30 24 -64 49 -76 54
-11 5 -27 16 -35 24 -8 7 -34 27 -58 43 -63 42 -82 56 -122 87 -20 15 -39 27
-43 27 -4 0 -19 11 -34 25 -15 14 -32 25 -38 25 -6 0 -19 9 -29 20 -10 11 -22
20 -27 20 -5 0 -24 11 -42 25 -18 14 -38 25 -44 25 -7 0 -12 4 -12 8 0 5 -10
14 -22 20 -13 6 -41 23 -63 37 -22 14 -55 32 -72 42 -18 9 -33 20 -33 25 0 4
-7 8 -15 8 -8 0 -38 16 -65 35 -27 19 -57 35 -65 35 -8 0 -15 5 -15 10 0 6 -9
10 -19 10 -11 0 -23 5 -26 11 -4 5 -17 14 -28 19 -12 6 -49 26 -82 45 -33 19
-78 44 -100 55 -22 11 -47 24 -55 29 -8 5 -51 26 -95 47 -44 21 -81 41 -83 46
-2 4 -10 8 -17 8 -12 0 -73 27 -115 51 -19 10 -63 31 -115 54 -22 10 -58 26
-79 36 -22 11 -46 19 -53 19 -7 0 -13 5 -13 10 0 6 -6 10 -14 10 -7 0 -34 11
-60 25 -26 14 -53 25 -60 25 -17 0 -74 29 -81 41 -4 5 -15 9 -26 9 -10 0 -28
5 -39 10 -11 6 -29 15 -40 20 -11 6 -25 10 -32 10 -7 0 -35 11 -63 25 -27 13
-60 25 -72 25 -12 0 -25 5 -28 10 -3 6 -17 10 -29 10 -13 0 -29 7 -36 15 -7 8
-23 15 -36 15 -12 0 -26 5 -29 10 -3 6 -15 10 -26 10 -10 0 -27 4 -37 9 -20
10 -67 26 -137 48 -27 8 -58 19 -67 24 -10 5 -28 9 -40 9 -13 0 -32 7 -42 15
-11 8 -32 15 -47 15 -15 0 -31 5 -34 10 -3 6 -19 10 -36 10 -16 0 -29 4 -29 9
0 5 -17 11 -37 14 -75 11 -108 20 -128 33 -11 8 -34 14 -52 14 -17 0 -35 5
-38 10 -3 6 -24 10 -45 10 -21 0 -42 5 -45 10 -3 6 -23 10 -43 10 -20 0 -46 7
-56 15 -11 8 -37 15 -57 15 -21 0 -41 5 -44 10 -3 6 -26 10 -50 10 -24 0 -47
5 -50 10 -3 6 -25 10 -49 10 -23 0 -51 7 -62 15 -10 8 -38 15 -61 15 -23 0
-45 5 -48 10 -3 6 -33 10 -65 10 -32 0 -62 5 -65 10 -3 6 -34 10 -68 10 -39 1
-69 6 -81 15 -13 10 -43 15 -87 15 -37 0 -71 5 -74 10 -3 6 -42 10 -85 10 -43
0 -82 5 -85 10 -3 6 -44 10 -89 10 -55 0 -94 5 -112 15 -21 11 -62 15 -151 15
-103 0 -123 2 -123 15 0 13 -82 15 -674 15 -590 0 -675 -2 -680 -15z m672
-1623 c10 -7 12 -1561 10 -7738 l-3 -7729 -196 -3 c-148 -2 -210 1 -253 12
-41 11 -84 13 -154 9 -77 -4 -105 -2 -136 11 -25 10 -67 16 -122 16 -45 0 -86
4 -89 10 -3 6 -41 10 -83 10 -46 1 -87 6 -102 15 -16 9 -41 12 -72 8 -34 -4
-54 -1 -72 11 -16 10 -46 16 -80 16 -30 0 -58 5 -61 10 -3 6 -28 10 -55 10
-27 0 -52 5 -55 10 -3 6 -28 10 -54 10 -31 0 -53 5 -61 15 -8 9 -29 15 -56 15
-23 0 -46 5 -49 10 -3 6 -26 10 -50 10 -24 0 -47 5 -50 10 -3 6 -21 10 -39 10
-18 0 -41 7 -52 15 -10 8 -33 15 -51 15 -17 0 -35 5 -38 10 -3 6 -21 10 -38
10 -18 0 -40 7 -50 14 -9 7 -27 11 -40 9 -14 -3 -29 2 -36 11 -8 9 -26 16 -42
16 -15 0 -31 5 -34 10 -3 6 -19 10 -35 10 -16 0 -32 4 -35 10 -3 5 -17 10 -31
10 -13 0 -32 4 -42 9 -47 26 -87 41 -108 41 -13 0 -26 5 -29 10 -3 6 -17 10
-31 10 -14 0 -32 7 -40 15 -8 8 -21 12 -30 8 -8 -3 -22 1 -32 9 -9 7 -35 20
-57 27 -22 7 -51 17 -65 23 -51 21 -86 35 -110 46 -14 6 -43 16 -65 23 -22 7
-47 18 -55 24 -15 11 -26 16 -105 50 -22 10 -58 26 -79 36 -22 11 -46 19 -53
19 -8 0 -16 7 -20 16 -3 8 -11 13 -19 10 -7 -3 -18 2 -24 10 -7 8 -21 14 -31
14 -11 0 -19 5 -19 10 0 6 -6 10 -13 10 -18 0 -75 28 -82 41 -4 5 -15 9 -26 9
-10 0 -19 5 -19 10 0 6 -8 10 -17 11 -10 0 -31 9 -48 19 -28 18 -67 37 -125
63 -14 6 -32 16 -40 23 -8 6 -39 24 -67 39 -29 15 -53 31 -53 36 0 5 -6 9 -14
9 -17 0 -89 40 -94 52 -2 4 -12 8 -23 8 -11 0 -22 7 -25 15 -4 8 -11 15 -17
15 -5 0 -24 10 -41 23 -17 12 -43 29 -58 36 -16 8 -28 18 -28 23 0 4 -7 8 -15
8 -9 0 -28 11 -43 25 -15 14 -32 25 -38 25 -6 0 -19 9 -29 20 -10 11 -23 20
-30 20 -7 0 -20 9 -31 21 -10 12 -35 29 -55 39 -19 10 -42 26 -49 35 -8 10
-23 21 -35 26 -11 5 -47 31 -80 59 -33 27 -72 57 -88 65 -15 9 -43 31 -63 50
-20 19 -40 35 -46 35 -10 0 -56 38 -169 138 -32 28 -63 52 -68 52 -5 0 -33 24
-63 53 -29 29 -84 78 -123 109 -78 62 -489 474 -524 526 -13 18 -56 67 -97
109 -41 42 -74 80 -74 85 0 5 -26 37 -57 72 -97 108 -143 164 -157 191 -7 14
-22 33 -33 43 -11 9 -31 35 -45 57 -14 22 -35 49 -47 59 -11 11 -21 23 -21 29
0 5 -12 24 -27 42 -47 57 -93 121 -93 132 0 5 -9 18 -20 28 -11 10 -20 22 -20
27 0 5 -11 24 -25 42 -14 18 -25 36 -25 39 0 4 -7 15 -15 25 -16 18 -105 152
-105 158 0 2 -16 28 -35 58 -19 30 -35 58 -35 62 0 4 -16 29 -35 55 -19 27
-35 56 -35 64 0 8 -4 15 -10 15 -5 0 -10 6 -10 13 0 7 -16 36 -35 64 -19 29
-35 56 -35 61 0 10 -21 51 -50 97 -10 17 -19 38 -19 47 -1 9 -4 18 -8 20 -7 3
-70 124 -87 168 -4 8 -15 29 -25 45 -11 17 -20 38 -20 48 -1 9 -5 17 -11 17
-5 0 -10 6 -10 14 0 8 -6 27 -14 43 -8 15 -20 42 -26 58 -7 17 -16 38 -21 47
-5 10 -9 24 -9 32 0 8 -7 16 -15 20 -8 3 -15 15 -15 26 0 11 -4 29 -10 40 -5
11 -14 29 -20 40 -5 11 -10 29 -10 39 0 11 -4 23 -10 26 -5 3 -10 17 -10 30 0
12 -7 25 -15 29 -9 3 -15 18 -15 36 0 16 -4 30 -10 30 -5 0 -10 11 -10 25 0
25 -2 31 -33 93 -9 19 -17 42 -17 52 0 10 -4 22 -10 25 -5 3 -10 17 -10 30 0
13 -4 27 -10 30 -5 3 -10 19 -10 34 0 16 -7 34 -15 41 -8 7 -15 25 -15 41 0
15 -4 30 -9 33 -5 3 -11 20 -14 38 -15 85 -20 104 -34 120 -9 10 -13 26 -11
36 3 10 -1 27 -8 37 -8 10 -14 34 -14 52 0 18 -4 33 -10 33 -5 0 -10 17 -10
39 0 22 -6 44 -15 51 -8 7 -14 27 -13 46 1 19 -4 40 -10 46 -7 7 -12 29 -12
49 0 21 -4 41 -10 44 -5 3 -10 24 -10 46 0 22 -7 51 -16 64 -10 16 -14 34 -9
53 4 20 1 34 -9 45 -10 10 -16 34 -16 66 0 27 -4 53 -10 56 -5 3 -10 32 -10
64 0 42 -5 62 -16 72 -13 10 -15 25 -11 65 4 36 1 58 -8 71 -9 12 -14 45 -15
95 0 42 -5 80 -10 83 -6 3 -10 47 -10 96 0 60 -5 100 -15 118 -11 22 -14 61
-12 162 1 92 -2 141 -11 156 -17 30 -17 799 0 840 7 18 11 78 10 161 -1 91 2
141 11 155 6 12 15 67 20 122 4 55 10 133 13 173 3 40 11 84 19 98 7 15 10 43
7 69 -3 31 0 52 12 69 10 16 16 46 16 81 0 30 5 55 10 55 6 0 10 24 10 53 0
29 7 60 15 71 8 11 12 30 8 47 -3 18 1 38 11 54 9 13 16 42 16 65 0 22 5 40
10 40 6 0 10 19 10 43 0 23 7 50 14 60 8 10 12 26 9 37 -3 10 2 29 11 42 9 12
16 37 16 55 0 17 5 35 10 38 6 3 10 21 10 40 0 19 5 37 10 40 6 3 10 21 10 39
0 19 7 39 15 46 8 7 15 25 15 41 0 15 4 30 9 33 5 3 12 22 15 41 3 19 9 51 12
70 3 19 12 40 20 46 8 6 14 22 14 35 0 12 5 26 10 29 6 3 10 19 10 35 0 16 5
32 10 35 5 3 10 17 10 29 0 13 7 29 15 36 8 7 15 23 15 36 0 12 5 26 10 29 6
3 10 17 10 30 0 13 5 27 10 30 6 3 10 17 10 29 0 13 7 29 15 36 9 7 14 19 11
26 -3 7 2 18 10 24 8 7 14 25 14 41 0 16 5 29 10 29 6 0 10 9 10 19 0 11 5 23
10 26 6 3 10 17 10 30 0 13 7 30 15 39 8 8 15 19 15 25 0 6 4 19 9 29 5 9 13
28 19 42 5 14 21 49 36 78 14 30 26 60 26 67 0 7 7 16 16 19 8 3 12 11 9 17
-4 5 -1 18 7 27 21 27 38 61 38 77 0 8 5 15 10 15 6 0 10 9 10 19 0 11 4 22 9
26 13 7 41 64 41 82 0 7 5 13 10 13 6 0 10 9 10 20 0 11 7 23 15 26 8 4 15 14
15 24 0 11 5 22 10 25 6 3 10 15 10 26 0 10 4 19 8 19 5 0 16 15 26 33 45 85
76 139 133 232 7 11 16 29 22 40 5 12 16 27 25 34 9 7 16 22 16 31 0 10 4 20
8 22 8 3 94 131 120 178 7 14 20 29 28 33 8 4 14 17 14 27 0 11 9 25 20 32 11
7 20 18 20 24 0 6 16 31 35 55 19 24 35 48 35 52 0 4 11 20 25 35 14 15 25 31
25 35 0 5 16 25 35 45 19 20 35 42 35 48 0 5 14 23 31 40 17 16 38 42 46 59 9
16 30 44 48 61 18 18 39 42 46 55 13 26 79 103 205 237 44 48 92 103 106 123
36 48 467 480 509 509 19 13 66 53 106 89 143 131 203 181 214 181 7 0 29 18
50 40 21 22 42 40 46 40 5 0 30 18 57 40 26 22 52 40 57 40 5 0 21 14 36 30
14 17 32 30 38 30 7 0 29 16 49 35 21 19 42 35 47 35 5 0 22 11 37 25 15 14
36 28 47 31 10 4 28 17 38 30 10 13 25 24 33 24 8 0 25 11 38 25 13 14 29 25
35 25 7 0 24 11 39 25 15 14 32 25 38 25 6 0 19 9 29 20 10 11 26 20 35 20 10
0 20 6 23 13 3 6 27 23 53 37 27 13 63 35 80 47 17 13 36 23 42 23 7 0 12 5
12 10 0 6 8 10 18 10 10 0 23 5 28 10 14 14 74 49 97 56 9 4 17 10 17 15 0 5
9 9 20 9 11 0 23 7 27 16 3 8 11 13 19 10 7 -3 18 2 24 10 7 8 21 14 31 14 11
0 19 5 19 10 0 6 9 10 19 10 11 0 22 4 26 9 7 13 64 41 82 41 7 0 13 5 13 10
0 6 8 10 19 10 10 0 24 7 31 15 7 8 16 13 20 10 4 -3 13 2 20 10 7 8 21 15 31
15 11 0 19 5 19 10 0 6 9 10 20 10 11 0 23 7 26 15 4 8 12 15 20 15 8 0 22 4
32 9 9 5 28 13 42 19 14 5 49 21 78 36 30 14 60 26 68 26 8 0 14 5 14 10 0 6
7 10 15 10 13 0 100 36 147 61 10 5 29 9 43 9 14 0 25 5 25 10 0 6 8 10 18 10
10 0 27 7 38 15 10 8 29 15 42 15 12 0 22 5 22 10 0 6 11 10 25 10 25 0 31 2
93 33 19 9 44 17 57 17 13 0 27 5 30 10 3 6 19 10 35 10 16 0 32 5 35 10 3 6
17 10 29 10 13 0 29 7 36 15 7 8 25 15 41 15 15 0 31 5 34 10 3 6 19 10 35 10
16 0 32 5 35 10 3 6 21 10 38 10 18 0 41 7 51 15 11 8 32 15 47 15 15 0 31 5
34 10 3 6 24 10 45 10 21 0 42 5 45 10 3 6 22 10 41 10 19 0 46 7 59 16 14 9
36 14 50 12 14 -3 33 1 42 8 10 7 37 14 61 14 23 0 42 5 42 10 0 6 20 10 45
10 25 0 56 7 69 15 13 9 39 15 58 13 18 -1 40 2 48 7 16 10 102 23 214 31 38
3 80 13 93 21 18 12 37 14 81 9 42 -5 62 -3 78 8 13 9 58 17 120 20 54 4 164
10 244 14 80 5 159 13 175 19 35 13 394 17 413 5z"/>
</g>
</svg>
